<?xml version="1.0" encoding="utf-8"?>
<!-- Generator: Adobe Illustrator 18.1.0, SVG Export Plug-In . SVG Version: 6.00 Build 0)  -->
<svg version="1.1" id="Layer_1" xmlns="http://www.w3.org/2000/svg" xmlns:xlink="http://www.w3.org/1999/xlink" x="0px" y="0px"
	 viewBox="566 60.9 3658.2 720" enable-background="new 566 60.9 3658.2 720" xml:space="preserve">
<g>
	<path fill="#B7B7B7" d="M826.4,466.1c0-5.1-3.1-10.2-7.1-12.2l-115.9-67.1c-2-1-4.1-2-6.1-2h-1c-2,0-4.1,1-6.1,2l-117.1,67.1
		c-4.1,2-7.1,7.1-7.1,12.2v180c0,2,1,5.1,3.1,6.1c2.1,1,5.1,1,7.1,0l69.2-39.7c4.1-3.1,7.1-7.1,7.1-12.2v-84.4
		c0-5.1,3.1-9.2,7.1-12.2l29.5-17.3c2-1,5.1-2,7.1-2s5.1,1,7.1,2l29.5,17.3c4.1,2,7.1,7.1,7.1,12.2v84.4c0,5.1,3.1,9.2,7.1,12.2
		l69.2,39.7c2,1,5.1,1,7.1,0s3.1-3.1,3.1-6.1V466.1z"/>
	<path fill="#B7B7B7" d="M1445.8,219c-2-1-5.1-1-7.1,0s-3.1,3.1-3.1,6.1v178c0,2-1,3.1-2,4.1s-3.1,1-5.1,0l-29.5-16.3
		c-4.1-2-10.2-2-14.2,0L1268.9,458c-4.1,2-7.1,7.1-7.1,12.2v134.3c0,5.1,3.1,9.2,7.1,12.2l115.9,67.1c4.1,2,10.2,2,14.2,0
		l115.9-67.1c4.1-2,7.1-7.1,7.1-12.2V269.8c0-5.1-3.1-10.2-7.1-12.2L1445.8,219z M1434.6,559.7c0,1-1,2-2,3.1l-39.7,23.4
		c-1,1-2,1-3.1,0l-39.7-23.4c-1-1-2-2-2-3.1v-45.8c0-1,1-2,2-3.1l39.7-23.4c1-1,2-1,3.1,0l39.7,23.4c1,1,2,2,2,3.1V559.7z"/>
	<path fill="#B7B7B7" d="M1860.7,511.9c4.1-2,7.1-7.1,7.1-12.2v-32.5c0-5.1-3.1-9.2-7.1-12.2l-114.9-66.1c-4.1-2-10.2-2-14.2,0
		L1615.7,456c-4.1,2-7.1,7.1-7.1,12.2v134.3c0,5.1,3.1,10.2,7.1,12.2l114.9,66.1c4.1,2,9.2,2,14.2,0l70.2-38.6c2-1,4.1-3.1,4.1-6.1
		c0-2-1-5.1-3.1-6.1l-117-67.1c-2-1-3.1-4.1-3.1-6.1v-41.9c0-2,1-5.1,3.1-6.1l36.6-21.4c2-1,5.1-1,7.1,0l36.6,21.4
		c2,1,3.1,4.1,3.1,6.1v32.5c0,2,1,5.1,3.1,6.1s5.1,1,7.1,0L1860.7,511.9z"/>
	<path fill="#2196F3" d="M1036.9,387.8c4.1-2,10.2-2,14.2,0l116,67.1c4.1,2,7.1,7.1,7.1,12.2v134.3c0,5.1-3.1,9.2-7.1,12.2
		l-115.9,67.1c-4.1,2-10.2,2-14.2,0l-116-67.1c-4.1-2-7.1-7.1-7.1-12.2V467.1c0-5.1,3.1-9.2,7.1-12.2L1036.9,387.8z"/>
	<path fill="#2196F3" d="M2086.5,681.7c-4.1,0-8.1-1-11.2-3.1l-36.6-21.4c-5.1-3.1-3.1-4.1-1-5.1c7.1-2,9.2-3.1,16.3-7.1
		c1,0,2,0,3.1,0l28.5,16.3c1,1,2,1,3.1,0l109.8-63.1c1-1,2-2,2-3.1V470.2c0-1-1-2-2-3.1L2088.7,404c-1-1-2-1-3.1,0l-109.8,63.1
		c-1,1-2,2-2,3.1v126.1c0,1,1,2,2,3.1l29.5,17.3c16.3,8.1,26.4-1,26.4-11.2V480.4c0-2,1-3.1,3.1-3.1h14.2c2,0,3.1,1,3.1,3.1v125.1
		c0,21.4-12.2,34.6-32.5,34.6c-6.1,0-11.2,0-25.4-7.1l-28.5-16.3c-7.1-4.1-11.2-12.2-11.2-20.3V470.2c0-8.1,4.1-16.3,11.2-20.3
		l109.8-63.1c7.1-4.1,16.3-4.1,23.4,0l109.8,63.1c7.1,4.1,11.2,12.2,11.2,20.3v126.1c0,8.1-4.1,16.3-11.2,20.3l-109.8,63.1
		C2093.6,680.7,2090.6,681.7,2086.5,681.7z"/>
	<path fill="#2196F3" d="M2120.1,595.3c-47.8,0-58-22.4-58-40.7c0-2,1-3.1,3.1-3.1h14.2c2,0,3.1,1,3.1,3.1
		c2,14.2,8.1,21.4,37.6,21.4c23.4,0,32.5-5.1,32.5-17.3c0-7.1-3.1-12.2-38.6-16.3c-29.5-3.1-48.8-9.2-48.8-33.6
		c0-22.4,18.3-35.6,49.8-35.6c34.6,0,52.9,12.2,54.9,38.6c0,1,0,2-1,2c-1,1-1,1-2,1h-14.2c-1,0-3.1-1-3.1-2
		c-3.1-15.3-11.2-20.3-34.6-20.3c-25.4,0-28.5,9.2-28.5,15.3c0,8.1,3.1,10.2,37.6,15.3c33.6,4.1,49.8,11.2,49.8,34.6
		C2174,581.1,2154.7,595.3,2120.1,595.3z"/>
	<path fill="#2196F3" d="M1736.6,505.8c1,0,2,0,3.1,0l22.4,13.2c1,0,1,1,1,2v25.4c0,1-1,2-1,2l-22.4,13.2c-1,0-2,0-3.1,0l-22.4-13.2
		c-1,0-1-1-1-2V521c0-1,1-2,1-2L1736.6,505.8z"/>
	<g>
		<path fill="#2196F3" d="M2294,420.4c0,11.2-9.2,21.4-21.4,21.4c-11.2,0-21.4-9.2-21.4-21.4c0-12.2,10.2-21.4,21.4-21.4
			C2284.8,400,2294,409.2,2294,420.4z M2255.4,420.4c0,10.2,8.1,17.3,17.3,17.3c10.2,0,17.3-8.1,17.3-17.3
			c0-10.2-8.1-17.3-17.3-17.3C2263.5,403.1,2255.4,411.2,2255.4,420.4z M2265.5,409.2h8.1c3.1,0,8.1,0,8.1,6.1
			c0,4.1-3.1,5.1-4.1,6.1c3.1,0,3.1,2,4.1,5.1c0,2,1,5.1,1,6.1h-5.1c0-1-1-7.1-1-7.1c0-1-1-2-2-2h-4.1v9.2h-5.1L2265.5,409.2
			L2265.5,409.2z M2269.6,419.3h4.1c3.1,0,4.1-2,4.1-3.1c0-3.1-2-3.1-3.1-3.1h-4.1v6.1h-1V419.3z"/>
	</g>
</g>
<rect x="2462.2" y="192.7" fill="#C1C1C1" width="8" height="547.3"/>
<g>
	<g>
		<path fill="#537891" d="M2756.1,603.3c-0.4,0.3-11-44.4-11.4-66.8c-6,73.9-21.7,67.2-21.7,67.2c15.6,22.5,8.2,60.7,8.2,60.7h14.6
			c0,0-2.7-31.6,0.6-46.1C2747.3,613.9,2753.5,606.5,2756.1,603.3z"/>
		<path fill="#537891" d="M2766.1,595.5c0.3-0.2,0.5-0.3,0.5-0.3c0-0.1,0-0.1,0-0.2C2766.4,595.3,2766.2,595.4,2766.1,595.5z"/>
	</g>
	<path fill="#5BB2EF" d="M2739.7,616.6c0,0-103.8-68.8-98.4-180c5.3-111.3,91.9-188,92.5-196.7c5.8,12.4,38.5,184.5,39.1,204.7
		C2775.2,523.1,2739.7,616.6,2739.7,616.6z"/>
	<path fill="#2196F3" d="M2827,407.6c-22.2-97.9-92.8-166.5-92.8-166.5v0.2c27,114.7,5.5,375.4,5.5,375.4S2850.1,542.4,2827,407.6z"
		/>
</g>
<text transform="matrix(1 0 0 1 2982.041 365.984)"><tspan x="0" y="0" fill="#9E9E9E" font-family="'HelveticaNeue-Light'" font-size="148.9629">Powered by</tspan><tspan x="0" y="243.8" fill="#9E9E9E" font-family="'HelveticaNeue-Light'" font-size="257.2995">MongoDB</tspan></text>
</svg>
